<svg width="38" height="38" viewBox="0 0 38 38" fill="none" xmlns="http://www.w3.org/2000/svg">
<path d="M6.175 18.9997C6.175 16.2922 8.37583 14.0913 11.0833 14.0913H17.4167V11.083H11.0833C6.71333 11.083 3.16666 14.6297 3.16666 18.9997C3.16666 23.3697 6.71333 26.9163 11.0833 26.9163H17.4167V23.908H11.0833C8.37583 23.908 6.175 21.7072 6.175 18.9997ZM12.6667 20.583H25.3333V17.4163H12.6667V20.583ZM26.9167 11.083H20.5833V14.0913H26.9167C29.6242 14.0913 31.825 16.2922 31.825 18.9997C31.825 21.7072 29.6242 23.908 26.9167 23.908H20.5833V26.9163H26.9167C31.2867 26.9163 34.8333 23.3697 34.8333 18.9997C34.8333 14.6297 31.2867 11.083 26.9167 11.083Z" fill="#5E36B7"/>
</svg>
