<svg width="31" height="40" viewBox="0 0 31 40" fill="none" xmlns="http://www.w3.org/2000/svg">
<path fill-rule="evenodd" clip-rule="evenodd" d="M4.83001 1.78372C4.50167 1.21502 4.69652 0.487833 5.26522 0.159496C5.83392 -0.168841 6.56111 0.0260091 6.88944 0.594706L9.41442 4.96809C9.44726 4.974 9.48013 4.98133 9.51294 4.99013L15.3233 6.54738C15.9576 6.71739 16.3341 7.36945 16.1641 8.0038C15.9942 8.63815 15.3422 9.01457 14.7079 8.84456L9.46183 7.43853L8.05752 12.6808C7.88759 13.3151 7.23561 13.6916 6.60128 13.5215C5.96696 13.3515 5.59049 12.6995 5.76042 12.0651L7.31695 6.25462C7.32659 6.21864 7.33778 6.18349 7.35043 6.14922L4.83001 1.78372ZM17.1456 20.759C19.4371 19.436 20.2221 16.5056 18.8989 14.2138C17.5757 11.922 14.6455 11.1367 12.354 12.4597C10.0624 13.7827 9.27745 16.713 10.6006 19.0048C11.9238 21.2966 14.8541 22.082 17.1456 20.759ZM15.9064 18.6588C17.0402 18.0043 17.4285 16.5545 16.7739 15.4206C16.1193 14.2868 14.6695 13.8982 13.5358 14.5528C12.4021 15.2073 12.0137 16.6571 12.6684 17.7909C13.323 18.9248 14.7727 19.3134 15.9064 18.6588ZM8.94112 19.984C10.2643 22.2758 9.47929 25.2062 7.18778 26.5292C4.89627 27.8522 1.96599 27.0668 0.642824 24.775C-0.680345 22.4832 0.104651 19.5529 2.39616 18.2299C4.68767 16.9069 7.61795 17.6922 8.94112 19.984ZM6.79749 21.1496C7.45212 22.2835 7.06375 23.7333 5.93003 24.3878C4.79632 25.0424 3.34658 24.6538 2.69195 23.52C2.03732 22.3861 2.42569 20.9363 3.5594 20.2818C4.69312 19.6272 6.14286 20.0158 6.79749 21.1496ZM17.9727 32.9627C20.2642 31.6397 21.0492 28.7093 19.726 26.4175C18.4029 24.1257 15.4726 23.3403 13.1811 24.6633C10.8896 25.9863 10.1046 28.9167 11.4277 31.2085C12.7509 33.5003 15.6812 34.2857 17.9727 32.9627ZM16.6966 30.8083C17.8304 30.1537 18.2187 28.7039 17.5641 27.5701C16.9095 26.4362 15.4597 26.0477 14.326 26.7022C13.1923 27.3568 12.8039 28.8066 13.4586 29.9404C14.1132 31.0743 15.5629 31.4628 16.6966 30.8083ZM29.7175 32.8122C31.0406 35.104 30.2556 38.0344 27.9641 39.3574C25.6726 40.6804 22.7423 39.895 21.4192 37.6032C20.096 35.3114 20.881 32.3811 23.1725 31.0581C25.464 29.7351 28.3943 30.5204 29.7175 32.8122ZM27.5899 34.0038C28.2445 35.1376 27.8562 36.5874 26.7224 37.242C25.5887 37.8965 24.139 37.508 23.4844 36.3741C22.8297 35.2403 23.2181 33.7905 24.3518 33.1359C25.4855 32.4814 26.9353 32.8699 27.5899 34.0038ZM27.967 27.1924C30.2585 25.8694 31.0435 22.9391 29.7203 20.6473C28.3972 18.3555 25.4669 17.5701 23.1754 18.8931C20.8839 20.2161 20.0989 23.1465 21.422 25.4383C22.7452 27.7301 25.6755 28.5155 27.967 27.1924ZM26.7718 25.0793C27.9055 24.4247 28.2939 22.9749 27.6393 21.8411C26.9847 20.7072 25.5349 20.3187 24.4012 20.9732C23.2675 21.6278 22.8791 23.0775 23.5337 24.2114C24.1884 25.3453 25.6381 25.7338 26.7718 25.0793ZM28.8932 8.4436C30.2164 10.7354 29.4314 13.6658 27.1399 14.9888C24.8484 16.3118 21.9181 15.5264 20.5949 13.2346C19.2717 10.9428 20.0567 8.01245 22.3483 6.68945C24.6398 5.36644 27.57 6.1518 28.8932 8.4436ZM26.7503 9.59281C27.4049 10.7267 27.0166 12.1765 25.8828 12.831C24.7491 13.4856 23.2994 13.097 22.6448 11.9631C21.9901 10.8293 22.3785 9.3795 23.5122 8.72495C24.6459 8.0704 26.0957 8.45896 26.7503 9.59281Z" fill="#111111"/>
</svg>
