<svg width="40" height="37" viewBox="0 0 40 37" fill="none" xmlns="http://www.w3.org/2000/svg">
<path d="M14.9957 3.84644C14.2426 3.84644 13.632 4.45696 13.632 5.21007V6.76852C13.632 7.52163 14.2426 8.13215 14.9957 8.13215H15.7661V16.7038L12.5276 21.9067L26.4714 20.1876L24.3028 16.7036L24.3026 8.13215H25.0732C25.8263 8.13215 26.4368 7.52163 26.4368 6.76852V5.21007C26.4368 4.45696 25.8263 3.84644 25.0732 3.84644H14.9957Z" fill="#DADADA"/>
<path d="M27.7195 22.1926L11.0721 24.2451L6.65246 31.3453C5.97399 32.4353 6.75777 33.8464 8.04168 33.8464H32.0274C33.3113 33.8464 34.0951 32.4353 33.4166 31.3453L27.7195 22.1926Z" fill="#DADADA"/>
</svg>
