<svg width="66" height="78" viewBox="0 0 66 78" fill="none" xmlns="http://www.w3.org/2000/svg">
<g clip-path="url(#clip0_595_5007)">
<rect width="65.2" height="77.64" fill="white"/>
<path opacity="0.39" d="M61.83 32.6301C59.5734 28.1405 58.4279 23.1746 58.49 18.1501C58.5927 16.4299 59.2407 14.7872 60.34 13.4601C60.34 13.4601 59.85 13.5201 59.12 13.6601C57.45 13.9801 54.48 14.6601 53.03 15.9501C51.1786 17.4882 49.7789 19.4996 48.98 21.7701C47.9141 19.1661 46.605 16.6683 45.07 14.3101C43.1845 12.0385 41.0663 9.97055 38.75 8.14012C39.5328 11.0723 39.8466 14.1098 39.68 17.1401C39.4002 19.8489 38.8747 22.5265 38.11 25.1401C36.44 23.3338 35.1761 21.1909 34.4033 18.8554C33.6306 16.5199 33.3669 14.046 33.63 11.6001C34.52 4.60012 40.23 0.380117 40.63 0.120117C40.14 0.220117 32.31 1.97012 27.58 8.78012C23.62 14.4201 23.17 20.2601 25.02 28.0001C26.65 34.8401 24.41 38.8101 24.41 38.8101C24.41 38.8101 17.41 40.3001 14.61 35.9001C11.81 31.5001 12.91 24.0001 12.91 24.0001C12.91 24.0001 0.120003 33.7601 0.120003 46.6101C0.120003 60.1001 10.85 77.5101 32.41 77.5101C57.21 77.5101 64.5 56.3501 64.93 49.8901C65.3 44.3301 65.15 39.5201 61.83 32.6301ZM45.14 32.5601C45.14 32.5601 45.47 33.0401 45.99 33.7401C46.4012 34.3218 46.7561 34.9413 47.05 35.5901C47.05 35.5901 47.21 24.0001 51.29 18.8901C53.3822 16.4859 56.0784 14.6838 59.1 13.6701C55 15.7601 52.53 18.1401 51.87 23.1501C51.34 27.2001 52.67 34.9201 52.13 39.7701C51.69 43.7701 49.58 46.7701 47.88 47.6501C46.18 48.5301 45.11 47.8601 45.05 46.5501C44.97 45.0301 46.05 42.3701 45.92 40.2301C45.6807 38.178 45.0815 36.1842 44.15 34.3401L45.14 32.5601ZM33.15 71.0001C8.74001 70.7601 6.87 48.0001 8.93 42.7901C8.93 42.7901 10.5 54.9701 24.23 51.8601C37.96 48.7501 30.96 28.2001 30.74 27.5401C32.5308 29.2682 34.1239 31.19 35.49 33.2701C37.65 36.5701 38.26 42.1701 37.55 47.0701C36.84 51.9701 37.3 58.6501 46.07 56.1701C56.98 53.0801 56.07 36.0401 56.07 36.0401C61.03 41.7901 61.46 71.1901 33.15 71.0001Z" fill="#C4C4C4"/>
<path opacity="0.39" d="M33.15 71C8.74001 70.76 6.87001 48 8.93001 42.79C8.93001 42.79 10.5 54.97 24.23 51.86C37.96 48.75 30.96 28.2 30.74 27.54C32.5308 29.2681 34.1239 31.1899 35.49 33.27C37.65 36.57 38.26 42.17 37.55 47.07C36.84 51.97 37.3 58.65 46.07 56.17C56.98 53.08 56.07 36.04 56.07 36.04C61.03 41.79 61.46 71.19 33.15 71Z" fill="#C4C4C4"/>
<path opacity="0.39" d="M51.87 23.1499C51.34 27.1999 52.67 34.9199 52.13 39.7699C51.69 43.7699 49.58 46.7699 47.88 47.6499C46.18 48.5299 45.11 47.8599 45.05 46.5499C44.97 45.0299 46.05 42.3699 45.92 40.2299C45.6807 38.1778 45.0815 36.184 44.15 34.3399L45.15 32.5599C45.15 32.5599 45.48 33.0399 46 33.7399C46.4111 34.3216 46.7661 34.9411 47.06 35.5899C47.06 35.5899 47.21 23.9999 51.29 18.8899C53.3822 16.4857 56.0784 14.6836 59.1 13.6699C55 15.7599 52.53 18.1399 51.87 23.1499Z" fill="#C4C4C4"/>
<path fill-rule="evenodd" clip-rule="evenodd" d="M31.161 56.3027L24.1899 50.4532L22.8889 52.0036L31.409 59.1529L43.1077 45.2109L41.5588 43.9111L31.161 56.3027Z" fill="#42974A"/>
</g>
<defs>
<clipPath id="clip0_595_5007">
<rect width="65.2" height="77.64" fill="white"/>
</clipPath>
</defs>
</svg>
