<svg width="123" height="31" viewBox="0 0 123 31" fill="none" xmlns="http://www.w3.org/2000/svg">
<path d="M30.458 30H25.418L24.998 21.81L24.032 11.394H23.612L17.564 27.144H13.154L7.652 11.394H7.274L6.224 21.264L5.636 30H0.848L3.578 2.952H10.13L11.222 6.942L15.506 19.752H15.884L20.378 6.942L21.596 2.952H28.022L30.458 30ZM35.4088 21.936L35.1988 10.848L40.7008 10.386L40.4488 21.39L40.7008 30H35.1148L35.4088 21.936ZM38.0548 0.893999C38.9228 0.893999 39.5948 1.146 40.0708 1.65C40.5748 2.154 40.8268 2.854 40.8268 3.75C40.8268 4.702 40.5608 5.458 40.0288 6.018C39.4968 6.578 38.7688 6.858 37.8448 6.858C36.9208 6.858 36.2068 6.606 35.7028 6.102C35.2268 5.598 34.9888 4.884 34.9888 3.96C34.9888 3.036 35.2548 2.294 35.7868 1.734C36.3468 1.174 37.1028 0.893999 38.0548 0.893999ZM57.9939 17.82C58.0219 16.84 57.7979 16.084 57.3219 15.552C56.8739 14.992 56.2159 14.712 55.3479 14.712C54.0879 14.712 52.7439 15.314 51.3159 16.518V21.39L51.5679 30H45.9819L46.2759 21.936L46.0659 10.848L51.3579 10.386V13.242H51.6519C53.1919 11.842 54.8719 10.834 56.6919 10.218C58.8199 10.218 60.4439 10.708 61.5639 11.688C62.6839 12.64 63.2159 14.026 63.1599 15.846L63.0339 21.432L63.2859 30H57.6579L57.9939 17.82ZM76.1084 25.884C77.0044 25.884 77.9424 25.646 78.9224 25.17L79.3844 25.59L78.8384 28.908C77.4104 29.636 75.9544 30.084 74.4704 30.252C70.6904 29.86 68.8004 28.012 68.8004 24.708L69.0104 21.222L68.9684 13.998H66.3644L66.1544 13.704L66.4484 10.638H68.9264V7.404L74.0084 5.766L74.3864 6.102L74.2604 10.638H79.2584L79.4264 10.932L79.1744 13.998H74.1764L73.9244 23.406C73.9244 24.302 74.0924 24.946 74.4284 25.338C74.7644 25.702 75.3244 25.884 76.1084 25.884ZM97.2875 25.758L96.9095 30H82.2935L82.5875 21.936L82.2935 2.952H88.0895L87.7535 21.432L87.8795 25.296H96.9515L97.2875 25.758ZM100.295 21.936L100.085 10.848L105.587 10.386L105.335 21.39L105.587 30H100.001L100.295 21.936ZM102.941 0.893999C103.809 0.893999 104.481 1.146 104.957 1.65C105.461 2.154 105.713 2.854 105.713 3.75C105.713 4.702 105.447 5.458 104.915 6.018C104.383 6.578 103.655 6.858 102.731 6.858C101.807 6.858 101.093 6.606 100.589 6.102C100.113 5.598 99.8755 4.884 99.8755 3.96C99.8755 3.036 100.141 2.294 100.673 1.734C101.233 1.174 101.989 0.893999 102.941 0.893999ZM118.765 25.884C119.661 25.884 120.599 25.646 121.579 25.17L122.041 25.59L121.495 28.908C120.067 29.636 118.611 30.084 117.127 30.252C113.347 29.86 111.457 28.012 111.457 24.708L111.667 21.222L111.625 13.998H109.021L108.811 13.704L109.105 10.638H111.583V7.404L116.665 5.766L117.043 6.102L116.917 10.638H121.915L122.083 10.932L121.831 13.998H116.833L116.581 23.406C116.581 24.302 116.749 24.946 117.085 25.338C117.421 25.702 117.981 25.884 118.765 25.884Z" fill="#3423BB"/>
</svg>
