<svg width="48" height="66" viewBox="0 0 48 66" fill="none" xmlns="http://www.w3.org/2000/svg">
<mask id="mask0" style="mask-type:alpha" maskUnits="userSpaceOnUse" x="0" y="0" width="48" height="66">
<path d="M29.8269 0H4.47404C2.01332 0 0 2.025 0 4.5V61.5C0 63.975 2.01332 66 4.47404 66H43.249C45.7098 66 47.7231 63.975 47.7231 61.5V18L29.8269 0Z" fill="white"/>
</mask>
<g mask="url(#mask0)">
<path d="M29.8269 0H4.47404C2.01332 0 0 2.025 0 4.5V61.5C0 63.975 2.01332 66 4.47404 66H43.249C45.7098 66 47.7231 63.975 47.7231 61.5V18L37.2837 10.5L29.8269 0Z" fill="#4285F4"/>
</g>
<mask id="mask1" style="mask-type:alpha" maskUnits="userSpaceOnUse" x="0" y="0" width="48" height="66">
<path d="M29.8269 0H4.47404C2.01332 0 0 2.025 0 4.5V61.5C0 63.975 2.01332 66 4.47404 66H43.249C45.7098 66 47.7231 63.975 47.7231 61.5V18L29.8269 0Z" fill="white"/>
</mask>
<g mask="url(#mask1)">
<path d="M31.1357 16.6838L47.7232 33.3638V18.0001L31.1357 16.6838Z" fill="url(#paint0_linear)"/>
</g>
<mask id="mask2" style="mask-type:alpha" maskUnits="userSpaceOnUse" x="0" y="0" width="48" height="66">
<path d="M29.8269 0H4.47404C2.01332 0 0 2.025 0 4.5V61.5C0 63.975 2.01332 66 4.47404 66H43.249C45.7098 66 47.7231 63.975 47.7231 61.5V18L29.8269 0Z" fill="white"/>
</mask>
<g mask="url(#mask2)">
<path d="M11.9307 48H35.7922V45H11.9307V48ZM11.9307 54H29.8268V51H11.9307V54ZM11.9307 33V36H35.7922V33H11.9307ZM11.9307 42H35.7922V39H11.9307V42Z" fill="#F1F1F1"/>
</g>
<mask id="mask3" style="mask-type:alpha" maskUnits="userSpaceOnUse" x="0" y="0" width="48" height="66">
<path d="M29.8269 0H4.47404C2.01332 0 0 2.025 0 4.5V61.5C0 63.975 2.01332 66 4.47404 66H43.249C45.7098 66 47.7231 63.975 47.7231 61.5V18L29.8269 0Z" fill="white"/>
</mask>
<g mask="url(#mask3)">
<path d="M29.8271 0V13.5C29.8271 15.9862 31.8293 18 34.3012 18H47.7233L29.8271 0Z" fill="#A1C2FA"/>
</g>
<mask id="mask4" style="mask-type:alpha" maskUnits="userSpaceOnUse" x="0" y="0" width="48" height="66">
<path d="M29.8269 0H4.47404C2.01332 0 0 2.025 0 4.5V61.5C0 63.975 2.01332 66 4.47404 66H43.249C45.7098 66 47.7231 63.975 47.7231 61.5V18L29.8269 0Z" fill="white"/>
</mask>
<g mask="url(#mask4)">
<path d="M4.47404 0C2.01332 0 0 2.025 0 4.5V4.875C0 2.4 2.01332 0.375 4.47404 0.375H29.8269V0H4.47404Z" fill="white" fill-opacity="0.2"/>
</g>
<mask id="mask5" style="mask-type:alpha" maskUnits="userSpaceOnUse" x="0" y="0" width="48" height="66">
<path d="M29.8269 0H4.47404C2.01332 0 0 2.025 0 4.5V61.5C0 63.975 2.01332 66 4.47404 66H43.249C45.7098 66 47.7231 63.975 47.7231 61.5V18L29.8269 0Z" fill="white"/>
</mask>
<g mask="url(#mask5)">
<path d="M43.249 65.625H4.47404C2.01332 65.625 0 63.6 0 61.125V61.5C0 63.975 2.01332 66 4.47404 66H43.249C45.7098 66 47.7231 63.975 47.7231 61.5V61.125C47.7231 63.6 45.7098 65.625 43.249 65.625Z" fill="#1A237E" fill-opacity="0.2"/>
</g>
<mask id="mask6" style="mask-type:alpha" maskUnits="userSpaceOnUse" x="0" y="0" width="48" height="66">
<path d="M29.8269 0H4.47404C2.01332 0 0 2.025 0 4.5V61.5C0 63.975 2.01332 66 4.47404 66H43.249C45.7098 66 47.7231 63.975 47.7231 61.5V18L29.8269 0Z" fill="white"/>
</mask>
<g mask="url(#mask6)">
<path d="M34.3012 18C31.8293 18 29.8271 15.9862 29.8271 13.5V13.875C29.8271 16.3612 31.8293 18.375 34.3012 18.375H47.7233V18H34.3012Z" fill="#1A237E" fill-opacity="0.1"/>
</g>
<path d="M29.8269 0H4.47404C2.01332 0 0 2.025 0 4.5V61.5C0 63.975 2.01332 66 4.47404 66H43.249C45.7098 66 47.7231 63.975 47.7231 61.5V18L29.8269 0Z" fill="url(#paint1_radial)"/>
<defs>
<linearGradient id="paint0_linear" x1="39.4304" y1="18.116" x2="39.4304" y2="33.3661" gradientUnits="userSpaceOnUse">
<stop stop-color="#1A237E" stop-opacity="0.2"/>
<stop offset="1" stop-color="#1A237E" stop-opacity="0.02"/>
</linearGradient>
<radialGradient id="paint1_radial" cx="0" cy="0" r="1" gradientUnits="userSpaceOnUse" gradientTransform="translate(1.51189 1.30449) scale(76.9528)">
<stop stop-color="white" stop-opacity="0.1"/>
<stop offset="1" stop-color="white" stop-opacity="0"/>
</radialGradient>
</defs>
</svg>
